<svg width="24" height="26" viewBox="0 0 24 26" fill="none" xmlns="http://www.w3.org/2000/svg">
<path d="M14.456 24.952C13.4 25.048 12.472 25.096 11.672 25.096C10.904 25.096 10.216 25.032 9.608 24.904C9.16 22.536 8.936 20.648 8.936 19.24C8.936 17.8 8.952 16.344 8.984 14.872L0.488 14.68C0.36 14.072 0.296 13.416 0.296 12.712C0.296 12.008 0.344 11.288 0.44 10.552C2.936 10.104 5.08 9.88 6.872 9.88H9.08L9.272 0.423999C9.88 0.295999 10.568 0.231998 11.336 0.231998C12.136 0.231998 13.064 0.279999 14.12 0.375999C14.536 2.712 14.744 4.76 14.744 6.52V10.024L23.48 10.216C23.608 10.824 23.672 11.496 23.672 12.232C23.672 12.936 23.624 13.624 23.528 14.296C21.032 14.776 19.208 15.016 18.056 15.016C16.904 15.016 15.752 15 14.6 14.968L14.456 24.952Z" fill="#840505"/>
</svg>
